<svg xmlns="http://www.w3.org/2000/svg" viewBox="605 395 255 370">
  <path fill="#232949" d="M654.69,615.62c.64-13.62,4.41-27.11,11.2-40.1,16.55-31.67,34.42-61.79,53.34-93.69,4.8-8.09,9.63-16.23,14.45-24.42l22.9,39c13.67,23.25,27.34,46.51,40.82,69.91,8.68,15.07,13.48,31.64,14.24,49.26.07,1.63.03,3.23.03,4.84,14.87,5.92,28.91,13.45,41.9,22.43.77-5.26,1.36-10.59,1.58-16.02,0,0,.22-5.55.01-12.2-.15-4.74-.88-11.31-.88-11.31-2.39-21.69-9.21-42.8-20.06-61.62-19.45-33.75-39.18-67.29-58.91-100.83l-20.67-35.17c-2.25-3.83-9.08-15.48-21.12-15.48s-19.08,11.88-21.37,15.78c-26.57,45.27-53.12,90.55-79.6,135.88-11.12,19.04-19.16,39.57-20.12,61.45-.59,13.43-.48,25.56,1.27,38.4.03.24.08.48.12.72,12.68-8.7,26.37-16.02,40.83-21.83-.01-1.66-.05-3.32.03-4.99Z"/>
  <path fill="#05e4b2" d="M672.05,737.67c18.98,12.65,40.08,19.15,61.3,19.15,8.94,0,17.91-1.16,26.74-3.49,49.95-13.22,85.67-56.81,93.49-110.49-12.99-8.97-27.03-16.51-41.9-22.43-.03,42.1-24.37,77.55-60.54,87.13-32.38,8.57-59.05-2.63-79.24-33.31-11.34-17.24-17.09-35.25-17.24-53.62-14.47,5.8-28.15,13.13-40.83,21.83,5.64,39.62,26.82,74.31,58.22,95.23Z"/>
</svg>
