<?xml version="1.0" encoding="UTF-8"?>
<svg id="Layer_1" xmlns="http://www.w3.org/2000/svg" version="1.1" viewBox="200 390 1520 375">
  <defs>
    <style>
      .st0 { fill: #05e4b2; }
      .st1 { fill: #232949; }
    </style>
  </defs>
  <g>
    <path class="st1" d="M564.51,437.52l-56.53,197.66c-4.56,15.55-18.97,26.55-34.91,26.55h-.76c-16.7,0-30.72-11-34.52-26.55l-38.32-149.48-37.93,149.48c-3.8,15.55-18.6,26.55-34.15,26.55h-.76c-16.31,0-30.72-11-35.28-26.55l-56.9-198.04c-.77-2.27-1.14-4.93-1.14-7.2,0-14.43,11.75-28.08,28.84-28.08,12.9,0,24.65,8.73,28.06,22.01l40.22,165.41,43.25-165.41c3.03-11.38,13.65-19.74,26.55-19.74,11.77,0,22.01,8.36,25.04,19.74l43.26,165.41,39.45-165.04c3.04-13.27,15.18-22.38,28.84-22.38,17.07,0,28.84,13.28,28.84,28.08,0,2.66-.39,5.31-1.14,7.58Z"/>
    <path class="st1" d="M1055.77,453.83h-52.73v180.96c0,14.8-12.14,26.94-27.31,26.94s-26.94-12.14-26.94-26.94v-180.96h-52.73c-12.91,0-23.52-10.63-23.52-24.28,0-12.51,10.61-23.14,23.52-23.14h159.71c12.53,0,23.15,10.63,23.15,23.89s-10.63,23.52-23.15,23.52Z"/>
    <path class="st1" d="M1168.2,661.72c-14.41,0-26.55-12.14-26.55-26.55v-204.48c0-14.43,12.14-26.57,27.32-26.57s26.55,12.14,26.55,26.57v204.48c0,14.41-12.14,26.55-27.32,26.55Z"/>
    <path class="st1" d="M1426.64,453.83h-104.34v53.49h101.68c12.51,0,23.14,10.63,23.14,23.91s-10.63,23.52-23.14,23.52h-101.68v80.43c0,14.41-12.14,26.55-27.32,26.55s-26.55-12.14-26.55-26.55v-198.41c0-16.7,13.65-30.35,30.35-30.35h127.86c12.51,0,23.14,10.63,23.14,23.89s-10.63,23.52-23.14,23.52Z"/>
    <path class="st1" d="M1713.2,442.44l-73.21,113.43v79.3c0,14.41-12.14,26.55-27.32,26.55s-26.55-12.14-26.55-26.55v-79.3l-73.98-113.8c-2.66-3.8-3.8-8.36-3.8-12.9,0-12.14,10.63-24.67,25.81-24.67,8.34,0,17.07,4.17,21.99,12.14l56.92,91.44,55.76-91.05c4.94-7.97,13.28-12.53,22.4-12.53,15.55,0,25.79,12.14,25.79,24.67,0,4.54-1.14,9.1-3.8,13.27Z"/>
  </g>
  <g>
    <path class="st1" d="M654.69,615.62c.64-13.62,4.41-27.11,11.2-40.1,16.55-31.67,34.42-61.79,53.34-93.69,4.8-8.09,9.63-16.23,14.45-24.42l22.9,39c13.67,23.25,27.34,46.51,40.82,69.91,8.68,15.07,13.48,31.64,14.24,49.26.07,1.63.03,3.23.03,4.84,14.87,5.92,28.91,13.45,41.9,22.43.77-5.26,1.36-10.59,1.58-16.02,0,0,.22-5.55.01-12.2-.15-4.74-.88-11.31-.88-11.31-2.39-21.69-9.21-42.8-20.06-61.62-19.45-33.75-39.18-67.29-58.91-100.83l-20.67-35.17c-2.25-3.83-9.08-15.48-21.12-15.48s-19.08,11.88-21.37,15.78c-26.57,45.27-53.12,90.55-79.6,135.88-11.12,19.04-19.16,39.57-20.12,61.45-.59,13.43-.48,25.56,1.27,38.4.03.24.08.48.12.72,12.68-8.7,26.37-16.02,40.83-21.83-.01-1.66-.05-3.32.03-4.99Z"/>
    <path class="st0" d="M672.05,737.67c18.98,12.65,40.08,19.15,61.3,19.15,8.94,0,17.91-1.16,26.74-3.49,49.95-13.22,85.67-56.81,93.49-110.49-12.99-8.97-27.03-16.51-41.9-22.43-.03,42.1-24.37,77.55-60.54,87.13-32.38,8.57-59.05-2.63-79.24-33.31-11.34-17.24-17.09-35.25-17.24-53.62-14.47,5.8-28.15,13.13-40.83,21.83,5.64,39.62,26.82,74.31,58.22,95.23Z"/>
  </g>
</svg>
